<mxfile host="app.diagrams.net" modified="2021-04-15T17:06:41.236Z" agent="5.0 (Windows NT 10.0; Win64; x64) AppleWebKit/537.36 (KHTML, like Gecko) Chrome/89.0.4389.128 Safari/537.36" etag="5Gg5EuqnWAOwTDHP9KKZ" version="14.6.0" type="github">
  <diagram id="C5RBs43oDa-KdzZeNtuy" name="Page-1">
    <mxGraphModel dx="868" dy="482" grid="1" gridSize="10" guides="1" tooltips="1" connect="1" arrows="1" fold="1" page="1" pageScale="1" pageWidth="827" pageHeight="1169" math="0" shadow="0">
      <root>
        <mxCell id="WIyWlLk6GJQsqaUBKTNV-0" />
        <mxCell id="WIyWlLk6GJQsqaUBKTNV-1" parent="WIyWlLk6GJQsqaUBKTNV-0" />
        <mxCell id="WIyWlLk6GJQsqaUBKTNV-2" value="" style="rounded=0;html=1;jettySize=auto;orthogonalLoop=1;fontSize=11;endArrow=block;endFill=0;endSize=8;strokeWidth=1;shadow=0;labelBackgroundColor=none;edgeStyle=orthogonalEdgeStyle;entryX=0.5;entryY=0;entryDx=0;entryDy=0;exitX=0.25;exitY=1;exitDx=0;exitDy=0;" parent="WIyWlLk6GJQsqaUBKTNV-1" source="WIyWlLk6GJQsqaUBKTNV-3" target="WfJiVwxlq4hMfCcBVNuR-0" edge="1">
          <mxGeometry relative="1" as="geometry">
            <mxPoint x="220" y="170" as="targetPoint" />
            <Array as="points">
              <mxPoint x="396" y="130" />
              <mxPoint x="335" y="130" />
            </Array>
          </mxGeometry>
        </mxCell>
        <mxCell id="WfJiVwxlq4hMfCcBVNuR-4" style="edgeStyle=orthogonalEdgeStyle;rounded=0;orthogonalLoop=1;jettySize=auto;html=1;exitX=0.5;exitY=1;exitDx=0;exitDy=0;entryX=0.5;entryY=0;entryDx=0;entryDy=0;startArrow=none;" edge="1" parent="WIyWlLk6GJQsqaUBKTNV-1" source="WfJiVwxlq4hMfCcBVNuR-94" target="WfJiVwxlq4hMfCcBVNuR-13">
          <mxGeometry relative="1" as="geometry">
            <mxPoint x="180" y="170" as="targetPoint" />
            <Array as="points">
              <mxPoint x="130" y="105" />
              <mxPoint x="130" y="105" />
            </Array>
          </mxGeometry>
        </mxCell>
        <mxCell id="WfJiVwxlq4hMfCcBVNuR-10" style="edgeStyle=orthogonalEdgeStyle;rounded=0;orthogonalLoop=1;jettySize=auto;html=1;exitX=0.5;exitY=1;exitDx=0;exitDy=0;entryX=0.5;entryY=0;entryDx=0;entryDy=0;" edge="1" parent="WIyWlLk6GJQsqaUBKTNV-1" source="WIyWlLk6GJQsqaUBKTNV-3" target="WfJiVwxlq4hMfCcBVNuR-9">
          <mxGeometry relative="1" as="geometry" />
        </mxCell>
        <mxCell id="WfJiVwxlq4hMfCcBVNuR-23" value="" style="edgeStyle=orthogonalEdgeStyle;rounded=0;orthogonalLoop=1;jettySize=auto;html=1;endArrow=block;endFill=0;startArrow=none;" edge="1" parent="WIyWlLk6GJQsqaUBKTNV-1" source="WfJiVwxlq4hMfCcBVNuR-95" target="WfJiVwxlq4hMfCcBVNuR-22">
          <mxGeometry relative="1" as="geometry" />
        </mxCell>
        <mxCell id="WIyWlLk6GJQsqaUBKTNV-3" value="Modelo 1-D&lt;br&gt;Buckley-Leverett" style="rounded=1;whiteSpace=wrap;html=1;fontSize=12;glass=0;strokeWidth=1;shadow=0;" parent="WIyWlLk6GJQsqaUBKTNV-1" vertex="1">
          <mxGeometry x="364" y="70" width="126" height="50" as="geometry" />
        </mxCell>
        <mxCell id="WfJiVwxlq4hMfCcBVNuR-0" value="Relatório Equacionamento" style="ellipse;whiteSpace=wrap;html=1;" vertex="1" parent="WIyWlLk6GJQsqaUBKTNV-1">
          <mxGeometry x="283.25" y="150" width="104" height="60" as="geometry" />
        </mxCell>
        <mxCell id="WfJiVwxlq4hMfCcBVNuR-12" style="edgeStyle=orthogonalEdgeStyle;rounded=0;orthogonalLoop=1;jettySize=auto;html=1;entryX=0.5;entryY=0;entryDx=0;entryDy=0;" edge="1" parent="WIyWlLk6GJQsqaUBKTNV-1" source="WfJiVwxlq4hMfCcBVNuR-9" target="WfJiVwxlq4hMfCcBVNuR-11">
          <mxGeometry relative="1" as="geometry" />
        </mxCell>
        <mxCell id="WfJiVwxlq4hMfCcBVNuR-9" value="Métodos Númericos" style="rounded=0;whiteSpace=wrap;html=1;" vertex="1" parent="WIyWlLk6GJQsqaUBKTNV-1">
          <mxGeometry x="372" y="210" width="110" height="40" as="geometry" />
        </mxCell>
        <mxCell id="WfJiVwxlq4hMfCcBVNuR-18" value="" style="edgeStyle=orthogonalEdgeStyle;rounded=0;orthogonalLoop=1;jettySize=auto;html=1;endArrow=block;endFill=1;" edge="1" parent="WIyWlLk6GJQsqaUBKTNV-1" source="WfJiVwxlq4hMfCcBVNuR-11" target="WfJiVwxlq4hMfCcBVNuR-17">
          <mxGeometry relative="1" as="geometry" />
        </mxCell>
        <mxCell id="WfJiVwxlq4hMfCcBVNuR-26" value="" style="edgeStyle=orthogonalEdgeStyle;rounded=0;orthogonalLoop=1;jettySize=auto;html=1;endArrow=block;endFill=0;" edge="1" parent="WIyWlLk6GJQsqaUBKTNV-1" source="WfJiVwxlq4hMfCcBVNuR-11" target="WfJiVwxlq4hMfCcBVNuR-14">
          <mxGeometry relative="1" as="geometry">
            <Array as="points">
              <mxPoint x="333" y="310" />
            </Array>
          </mxGeometry>
        </mxCell>
        <mxCell id="WfJiVwxlq4hMfCcBVNuR-11" value="Diferenças Finita" style="rounded=0;whiteSpace=wrap;html=1;" vertex="1" parent="WIyWlLk6GJQsqaUBKTNV-1">
          <mxGeometry x="382" y="280" width="90" height="40" as="geometry" />
        </mxCell>
        <mxCell id="WfJiVwxlq4hMfCcBVNuR-25" value="" style="edgeStyle=orthogonalEdgeStyle;rounded=0;orthogonalLoop=1;jettySize=auto;html=1;endArrow=block;endFill=1;" edge="1" parent="WIyWlLk6GJQsqaUBKTNV-1" source="WfJiVwxlq4hMfCcBVNuR-13" target="WfJiVwxlq4hMfCcBVNuR-24">
          <mxGeometry relative="1" as="geometry">
            <Array as="points">
              <mxPoint x="40" y="230" />
            </Array>
          </mxGeometry>
        </mxCell>
        <mxCell id="WfJiVwxlq4hMfCcBVNuR-29" value="" style="edgeStyle=orthogonalEdgeStyle;rounded=0;orthogonalLoop=1;jettySize=auto;html=1;endArrow=block;endFill=1;exitX=1;exitY=0.5;exitDx=0;exitDy=0;" edge="1" parent="WIyWlLk6GJQsqaUBKTNV-1" source="WfJiVwxlq4hMfCcBVNuR-13" target="WfJiVwxlq4hMfCcBVNuR-28">
          <mxGeometry relative="1" as="geometry" />
        </mxCell>
        <mxCell id="WfJiVwxlq4hMfCcBVNuR-13" value="&lt;span&gt;B-L sem a capilaridade&lt;/span&gt;" style="rounded=1;whiteSpace=wrap;html=1;" vertex="1" parent="WIyWlLk6GJQsqaUBKTNV-1">
          <mxGeometry x="70" y="200" width="120" height="60" as="geometry" />
        </mxCell>
        <mxCell id="WfJiVwxlq4hMfCcBVNuR-14" value="Relatório" style="ellipse;whiteSpace=wrap;html=1;" vertex="1" parent="WIyWlLk6GJQsqaUBKTNV-1">
          <mxGeometry x="293.25" y="330" width="80" height="50" as="geometry" />
        </mxCell>
        <mxCell id="WfJiVwxlq4hMfCcBVNuR-21" value="" style="edgeStyle=orthogonalEdgeStyle;rounded=0;orthogonalLoop=1;jettySize=auto;html=1;endArrow=block;endFill=0;" edge="1" parent="WIyWlLk6GJQsqaUBKTNV-1" source="WfJiVwxlq4hMfCcBVNuR-17" target="WfJiVwxlq4hMfCcBVNuR-20">
          <mxGeometry relative="1" as="geometry">
            <Array as="points">
              <mxPoint x="330" y="385" />
            </Array>
          </mxGeometry>
        </mxCell>
        <mxCell id="WfJiVwxlq4hMfCcBVNuR-17" value="Programação python" style="whiteSpace=wrap;html=1;rounded=0;" vertex="1" parent="WIyWlLk6GJQsqaUBKTNV-1">
          <mxGeometry x="387.25" y="370" width="79.5" height="30" as="geometry" />
        </mxCell>
        <mxCell id="WfJiVwxlq4hMfCcBVNuR-20" value="Relatório" style="ellipse;whiteSpace=wrap;html=1;rounded=0;" vertex="1" parent="WIyWlLk6GJQsqaUBKTNV-1">
          <mxGeometry x="295.75" y="410" width="77.5" height="45" as="geometry" />
        </mxCell>
        <mxCell id="WfJiVwxlq4hMfCcBVNuR-63" style="edgeStyle=orthogonalEdgeStyle;rounded=0;orthogonalLoop=1;jettySize=auto;html=1;exitX=1;exitY=0.5;exitDx=0;exitDy=0;entryX=0.5;entryY=0;entryDx=0;entryDy=0;endArrow=block;endFill=1;" edge="1" parent="WIyWlLk6GJQsqaUBKTNV-1" source="WfJiVwxlq4hMfCcBVNuR-22" target="WfJiVwxlq4hMfCcBVNuR-62">
          <mxGeometry relative="1" as="geometry" />
        </mxCell>
        <mxCell id="WfJiVwxlq4hMfCcBVNuR-64" style="edgeStyle=orthogonalEdgeStyle;rounded=0;orthogonalLoop=1;jettySize=auto;html=1;entryX=0.5;entryY=0;entryDx=0;entryDy=0;endArrow=block;endFill=1;exitX=0;exitY=0.5;exitDx=0;exitDy=0;" edge="1" parent="WIyWlLk6GJQsqaUBKTNV-1" source="WfJiVwxlq4hMfCcBVNuR-22" target="WfJiVwxlq4hMfCcBVNuR-61">
          <mxGeometry relative="1" as="geometry" />
        </mxCell>
        <mxCell id="WfJiVwxlq4hMfCcBVNuR-22" value="B-L com a capilaridade" style="rounded=1;whiteSpace=wrap;html=1;shadow=0;strokeWidth=1;glass=0;" vertex="1" parent="WIyWlLk6GJQsqaUBKTNV-1">
          <mxGeometry x="630" y="200" width="120" height="60" as="geometry" />
        </mxCell>
        <mxCell id="WfJiVwxlq4hMfCcBVNuR-32" style="edgeStyle=orthogonalEdgeStyle;rounded=0;orthogonalLoop=1;jettySize=auto;html=1;entryX=0;entryY=0.5;entryDx=0;entryDy=0;endArrow=block;endFill=1;" edge="1" parent="WIyWlLk6GJQsqaUBKTNV-1" source="WfJiVwxlq4hMfCcBVNuR-24" target="WfJiVwxlq4hMfCcBVNuR-30">
          <mxGeometry relative="1" as="geometry" />
        </mxCell>
        <mxCell id="WfJiVwxlq4hMfCcBVNuR-24" value="Solução numérica Programa I" style="rounded=1;whiteSpace=wrap;html=1;" vertex="1" parent="WIyWlLk6GJQsqaUBKTNV-1">
          <mxGeometry x="10" y="340" width="110" height="50" as="geometry" />
        </mxCell>
        <mxCell id="WfJiVwxlq4hMfCcBVNuR-31" style="edgeStyle=orthogonalEdgeStyle;rounded=0;orthogonalLoop=1;jettySize=auto;html=1;exitX=0.5;exitY=1;exitDx=0;exitDy=0;entryX=1;entryY=0.5;entryDx=0;entryDy=0;endArrow=block;endFill=1;" edge="1" parent="WIyWlLk6GJQsqaUBKTNV-1" source="WfJiVwxlq4hMfCcBVNuR-28" target="WfJiVwxlq4hMfCcBVNuR-30">
          <mxGeometry relative="1" as="geometry" />
        </mxCell>
        <mxCell id="WfJiVwxlq4hMfCcBVNuR-28" value="Validação Analítica" style="whiteSpace=wrap;html=1;rounded=1;" vertex="1" parent="WIyWlLk6GJQsqaUBKTNV-1">
          <mxGeometry x="170" y="340" width="90" height="50" as="geometry" />
        </mxCell>
        <mxCell id="WfJiVwxlq4hMfCcBVNuR-34" value="" style="edgeStyle=orthogonalEdgeStyle;rounded=0;orthogonalLoop=1;jettySize=auto;html=1;endArrow=block;endFill=1;entryX=0.5;entryY=0;entryDx=0;entryDy=0;" edge="1" parent="WIyWlLk6GJQsqaUBKTNV-1" source="WfJiVwxlq4hMfCcBVNuR-30" target="WfJiVwxlq4hMfCcBVNuR-35">
          <mxGeometry relative="1" as="geometry">
            <mxPoint x="130" y="610" as="targetPoint" />
            <Array as="points">
              <mxPoint x="130" y="560" />
              <mxPoint x="130" y="560" />
            </Array>
          </mxGeometry>
        </mxCell>
        <mxCell id="WfJiVwxlq4hMfCcBVNuR-39" style="edgeStyle=orthogonalEdgeStyle;rounded=0;orthogonalLoop=1;jettySize=auto;html=1;endArrow=block;endFill=1;" edge="1" parent="WIyWlLk6GJQsqaUBKTNV-1">
          <mxGeometry relative="1" as="geometry">
            <mxPoint x="130" y="160" as="targetPoint" />
            <mxPoint x="130" y="550" as="sourcePoint" />
            <Array as="points">
              <mxPoint x="270" y="550" />
              <mxPoint x="270" y="160" />
            </Array>
          </mxGeometry>
        </mxCell>
        <mxCell id="WfJiVwxlq4hMfCcBVNuR-30" value="Consistente" style="rhombus;whiteSpace=wrap;html=1;" vertex="1" parent="WIyWlLk6GJQsqaUBKTNV-1">
          <mxGeometry x="90" y="440" width="80" height="80" as="geometry" />
        </mxCell>
        <mxCell id="WfJiVwxlq4hMfCcBVNuR-43" value="" style="edgeStyle=orthogonalEdgeStyle;rounded=0;orthogonalLoop=1;jettySize=auto;html=1;endArrow=block;endFill=0;" edge="1" parent="WIyWlLk6GJQsqaUBKTNV-1" source="WfJiVwxlq4hMfCcBVNuR-35" target="WfJiVwxlq4hMfCcBVNuR-42">
          <mxGeometry relative="1" as="geometry" />
        </mxCell>
        <mxCell id="WfJiVwxlq4hMfCcBVNuR-45" value="" style="edgeStyle=orthogonalEdgeStyle;rounded=0;orthogonalLoop=1;jettySize=auto;html=1;endArrow=block;endFill=1;" edge="1" parent="WIyWlLk6GJQsqaUBKTNV-1" source="WfJiVwxlq4hMfCcBVNuR-35" target="WfJiVwxlq4hMfCcBVNuR-44">
          <mxGeometry relative="1" as="geometry" />
        </mxCell>
        <mxCell id="WfJiVwxlq4hMfCcBVNuR-35" value="Comparação com OpenFoam" style="rounded=1;whiteSpace=wrap;html=1;" vertex="1" parent="WIyWlLk6GJQsqaUBKTNV-1">
          <mxGeometry x="70" y="600" width="120" height="60" as="geometry" />
        </mxCell>
        <mxCell id="WfJiVwxlq4hMfCcBVNuR-40" value="Sim" style="text;html=1;strokeColor=none;fillColor=none;align=center;verticalAlign=middle;whiteSpace=wrap;rounded=0;" vertex="1" parent="WIyWlLk6GJQsqaUBKTNV-1">
          <mxGeometry x="90" y="565" width="40" height="20" as="geometry" />
        </mxCell>
        <mxCell id="WfJiVwxlq4hMfCcBVNuR-41" value="Não" style="text;html=1;strokeColor=none;fillColor=none;align=center;verticalAlign=middle;whiteSpace=wrap;rounded=0;" vertex="1" parent="WIyWlLk6GJQsqaUBKTNV-1">
          <mxGeometry x="150" y="530" width="40" height="20" as="geometry" />
        </mxCell>
        <mxCell id="WfJiVwxlq4hMfCcBVNuR-42" value="Artigo I" style="ellipse;whiteSpace=wrap;html=1;rounded=1;" vertex="1" parent="WIyWlLk6GJQsqaUBKTNV-1">
          <mxGeometry x="220" y="600" width="120" height="60" as="geometry" />
        </mxCell>
        <mxCell id="WfJiVwxlq4hMfCcBVNuR-47" value="" style="edgeStyle=orthogonalEdgeStyle;rounded=0;orthogonalLoop=1;jettySize=auto;html=1;endArrow=block;endFill=1;" edge="1" parent="WIyWlLk6GJQsqaUBKTNV-1" source="WfJiVwxlq4hMfCcBVNuR-44" target="WfJiVwxlq4hMfCcBVNuR-46">
          <mxGeometry relative="1" as="geometry">
            <Array as="points">
              <mxPoint x="50" y="730" />
            </Array>
          </mxGeometry>
        </mxCell>
        <mxCell id="WfJiVwxlq4hMfCcBVNuR-50" style="edgeStyle=orthogonalEdgeStyle;rounded=0;orthogonalLoop=1;jettySize=auto;html=1;exitX=1;exitY=0.5;exitDx=0;exitDy=0;entryX=0.5;entryY=0;entryDx=0;entryDy=0;endArrow=block;endFill=1;" edge="1" parent="WIyWlLk6GJQsqaUBKTNV-1" source="WfJiVwxlq4hMfCcBVNuR-44" target="WfJiVwxlq4hMfCcBVNuR-49">
          <mxGeometry relative="1" as="geometry" />
        </mxCell>
        <mxCell id="WfJiVwxlq4hMfCcBVNuR-44" value="B-L com Migração de Finos" style="rounded=1;whiteSpace=wrap;html=1;" vertex="1" parent="WIyWlLk6GJQsqaUBKTNV-1">
          <mxGeometry x="70" y="700" width="120" height="60" as="geometry" />
        </mxCell>
        <mxCell id="WfJiVwxlq4hMfCcBVNuR-53" style="edgeStyle=orthogonalEdgeStyle;rounded=0;orthogonalLoop=1;jettySize=auto;html=1;entryX=0;entryY=0.5;entryDx=0;entryDy=0;endArrow=block;endFill=1;" edge="1" parent="WIyWlLk6GJQsqaUBKTNV-1" source="WfJiVwxlq4hMfCcBVNuR-46" target="WfJiVwxlq4hMfCcBVNuR-51">
          <mxGeometry relative="1" as="geometry" />
        </mxCell>
        <mxCell id="WfJiVwxlq4hMfCcBVNuR-46" value="&lt;span&gt;Solução numérica Programa II&lt;/span&gt;" style="rounded=1;whiteSpace=wrap;html=1;" vertex="1" parent="WIyWlLk6GJQsqaUBKTNV-1">
          <mxGeometry x="10" y="840" width="100" height="50" as="geometry" />
        </mxCell>
        <mxCell id="WfJiVwxlq4hMfCcBVNuR-52" style="edgeStyle=orthogonalEdgeStyle;rounded=0;orthogonalLoop=1;jettySize=auto;html=1;entryX=1;entryY=0.5;entryDx=0;entryDy=0;endArrow=block;endFill=1;" edge="1" parent="WIyWlLk6GJQsqaUBKTNV-1" source="WfJiVwxlq4hMfCcBVNuR-49" target="WfJiVwxlq4hMfCcBVNuR-51">
          <mxGeometry relative="1" as="geometry" />
        </mxCell>
        <mxCell id="WfJiVwxlq4hMfCcBVNuR-49" value="&lt;span&gt;Validação Analítica&lt;/span&gt;" style="rounded=1;whiteSpace=wrap;html=1;" vertex="1" parent="WIyWlLk6GJQsqaUBKTNV-1">
          <mxGeometry x="160" y="840" width="100" height="52.5" as="geometry" />
        </mxCell>
        <mxCell id="WfJiVwxlq4hMfCcBVNuR-55" value="" style="edgeStyle=orthogonalEdgeStyle;rounded=0;orthogonalLoop=1;jettySize=auto;html=1;endArrow=block;endFill=1;entryX=0.5;entryY=0;entryDx=0;entryDy=0;" edge="1" parent="WIyWlLk6GJQsqaUBKTNV-1" source="WfJiVwxlq4hMfCcBVNuR-51" target="WfJiVwxlq4hMfCcBVNuR-59">
          <mxGeometry relative="1" as="geometry">
            <Array as="points">
              <mxPoint x="130" y="1080" />
            </Array>
          </mxGeometry>
        </mxCell>
        <mxCell id="WfJiVwxlq4hMfCcBVNuR-56" style="edgeStyle=orthogonalEdgeStyle;rounded=0;orthogonalLoop=1;jettySize=auto;html=1;endArrow=block;endFill=1;" edge="1" parent="WIyWlLk6GJQsqaUBKTNV-1">
          <mxGeometry relative="1" as="geometry">
            <mxPoint x="130" y="680" as="targetPoint" />
            <mxPoint x="130" y="1020" as="sourcePoint" />
            <Array as="points">
              <mxPoint x="150" y="1020" />
              <mxPoint x="280" y="1020" />
              <mxPoint x="280" y="680" />
            </Array>
          </mxGeometry>
        </mxCell>
        <mxCell id="WfJiVwxlq4hMfCcBVNuR-51" value="Consistente" style="rhombus;whiteSpace=wrap;html=1;" vertex="1" parent="WIyWlLk6GJQsqaUBKTNV-1">
          <mxGeometry x="90" y="920" width="80" height="80" as="geometry" />
        </mxCell>
        <mxCell id="WfJiVwxlq4hMfCcBVNuR-54" value="Artigo II" style="ellipse;whiteSpace=wrap;html=1;" vertex="1" parent="WIyWlLk6GJQsqaUBKTNV-1">
          <mxGeometry x="253.25" y="1080" width="120" height="60" as="geometry" />
        </mxCell>
        <mxCell id="WfJiVwxlq4hMfCcBVNuR-57" value="Não" style="text;html=1;strokeColor=none;fillColor=none;align=center;verticalAlign=middle;whiteSpace=wrap;rounded=0;" vertex="1" parent="WIyWlLk6GJQsqaUBKTNV-1">
          <mxGeometry x="150" y="1000" width="40" height="20" as="geometry" />
        </mxCell>
        <mxCell id="WfJiVwxlq4hMfCcBVNuR-58" value="Sim" style="text;html=1;strokeColor=none;fillColor=none;align=center;verticalAlign=middle;whiteSpace=wrap;rounded=0;" vertex="1" parent="WIyWlLk6GJQsqaUBKTNV-1">
          <mxGeometry x="90" y="1030" width="40" height="20" as="geometry" />
        </mxCell>
        <mxCell id="WfJiVwxlq4hMfCcBVNuR-60" style="edgeStyle=orthogonalEdgeStyle;rounded=0;orthogonalLoop=1;jettySize=auto;html=1;exitX=1;exitY=0.25;exitDx=0;exitDy=0;endArrow=block;endFill=0;entryX=0;entryY=0.5;entryDx=0;entryDy=0;" edge="1" parent="WIyWlLk6GJQsqaUBKTNV-1" source="WfJiVwxlq4hMfCcBVNuR-59" target="WfJiVwxlq4hMfCcBVNuR-54">
          <mxGeometry relative="1" as="geometry">
            <mxPoint x="200" y="1095" as="targetPoint" />
            <Array as="points">
              <mxPoint x="180" y="1110" />
            </Array>
          </mxGeometry>
        </mxCell>
        <mxCell id="WfJiVwxlq4hMfCcBVNuR-59" value="Comparação com OpenFoam" style="rounded=1;whiteSpace=wrap;html=1;" vertex="1" parent="WIyWlLk6GJQsqaUBKTNV-1">
          <mxGeometry x="70" y="1080" width="120" height="60" as="geometry" />
        </mxCell>
        <mxCell id="WfJiVwxlq4hMfCcBVNuR-68" style="edgeStyle=orthogonalEdgeStyle;rounded=0;orthogonalLoop=1;jettySize=auto;html=1;exitX=0.5;exitY=1;exitDx=0;exitDy=0;entryX=0;entryY=0.5;entryDx=0;entryDy=0;endArrow=block;endFill=1;" edge="1" parent="WIyWlLk6GJQsqaUBKTNV-1" source="WfJiVwxlq4hMfCcBVNuR-61" target="WfJiVwxlq4hMfCcBVNuR-66">
          <mxGeometry relative="1" as="geometry" />
        </mxCell>
        <mxCell id="WfJiVwxlq4hMfCcBVNuR-61" value="Solução numérica Programa III" style="rounded=1;whiteSpace=wrap;html=1;" vertex="1" parent="WIyWlLk6GJQsqaUBKTNV-1">
          <mxGeometry x="550" y="290" width="110" height="50" as="geometry" />
        </mxCell>
        <mxCell id="WfJiVwxlq4hMfCcBVNuR-67" style="edgeStyle=orthogonalEdgeStyle;rounded=0;orthogonalLoop=1;jettySize=auto;html=1;exitX=0.5;exitY=1;exitDx=0;exitDy=0;entryX=1;entryY=0.5;entryDx=0;entryDy=0;endArrow=block;endFill=1;" edge="1" parent="WIyWlLk6GJQsqaUBKTNV-1" source="WfJiVwxlq4hMfCcBVNuR-62" target="WfJiVwxlq4hMfCcBVNuR-66">
          <mxGeometry relative="1" as="geometry" />
        </mxCell>
        <mxCell id="WfJiVwxlq4hMfCcBVNuR-62" value="Validação Analítica" style="whiteSpace=wrap;html=1;rounded=1;" vertex="1" parent="WIyWlLk6GJQsqaUBKTNV-1">
          <mxGeometry x="730" y="290" width="90" height="50" as="geometry" />
        </mxCell>
        <mxCell id="WfJiVwxlq4hMfCcBVNuR-70" style="edgeStyle=orthogonalEdgeStyle;rounded=0;orthogonalLoop=1;jettySize=auto;html=1;entryX=0.5;entryY=0;entryDx=0;entryDy=0;endArrow=block;endFill=1;" edge="1" parent="WIyWlLk6GJQsqaUBKTNV-1" source="WfJiVwxlq4hMfCcBVNuR-66" target="WfJiVwxlq4hMfCcBVNuR-69">
          <mxGeometry relative="1" as="geometry" />
        </mxCell>
        <mxCell id="WfJiVwxlq4hMfCcBVNuR-71" style="edgeStyle=orthogonalEdgeStyle;rounded=0;orthogonalLoop=1;jettySize=auto;html=1;endArrow=block;endFill=1;" edge="1" parent="WIyWlLk6GJQsqaUBKTNV-1">
          <mxGeometry relative="1" as="geometry">
            <mxPoint x="690" y="480" as="sourcePoint" />
            <mxPoint x="690" y="160" as="targetPoint" />
            <Array as="points">
              <mxPoint x="670" y="480" />
              <mxPoint x="530" y="480" />
              <mxPoint x="530" y="160" />
            </Array>
          </mxGeometry>
        </mxCell>
        <mxCell id="WfJiVwxlq4hMfCcBVNuR-66" value="Consistente" style="rhombus;whiteSpace=wrap;html=1;" vertex="1" parent="WIyWlLk6GJQsqaUBKTNV-1">
          <mxGeometry x="650" y="380" width="80" height="80" as="geometry" />
        </mxCell>
        <mxCell id="WfJiVwxlq4hMfCcBVNuR-76" style="edgeStyle=orthogonalEdgeStyle;rounded=0;orthogonalLoop=1;jettySize=auto;html=1;endArrow=block;endFill=1;" edge="1" parent="WIyWlLk6GJQsqaUBKTNV-1" source="WfJiVwxlq4hMfCcBVNuR-69" target="WfJiVwxlq4hMfCcBVNuR-75">
          <mxGeometry relative="1" as="geometry" />
        </mxCell>
        <mxCell id="WfJiVwxlq4hMfCcBVNuR-78" value="" style="edgeStyle=orthogonalEdgeStyle;rounded=0;orthogonalLoop=1;jettySize=auto;html=1;endArrow=block;endFill=1;" edge="1" parent="WIyWlLk6GJQsqaUBKTNV-1" source="WfJiVwxlq4hMfCcBVNuR-69" target="WfJiVwxlq4hMfCcBVNuR-77">
          <mxGeometry relative="1" as="geometry" />
        </mxCell>
        <mxCell id="WfJiVwxlq4hMfCcBVNuR-69" value="Comparação com OpenFoam" style="rounded=1;whiteSpace=wrap;html=1;" vertex="1" parent="WIyWlLk6GJQsqaUBKTNV-1">
          <mxGeometry x="630" y="520" width="120" height="60" as="geometry" />
        </mxCell>
        <mxCell id="WfJiVwxlq4hMfCcBVNuR-73" value="Não" style="text;html=1;strokeColor=none;fillColor=none;align=center;verticalAlign=middle;whiteSpace=wrap;rounded=0;" vertex="1" parent="WIyWlLk6GJQsqaUBKTNV-1">
          <mxGeometry x="620" y="460" width="40" height="20" as="geometry" />
        </mxCell>
        <mxCell id="WfJiVwxlq4hMfCcBVNuR-74" value="Sim" style="text;html=1;strokeColor=none;fillColor=none;align=center;verticalAlign=middle;whiteSpace=wrap;rounded=0;" vertex="1" parent="WIyWlLk6GJQsqaUBKTNV-1">
          <mxGeometry x="690" y="490" width="40" height="20" as="geometry" />
        </mxCell>
        <mxCell id="WfJiVwxlq4hMfCcBVNuR-81" style="edgeStyle=orthogonalEdgeStyle;rounded=0;orthogonalLoop=1;jettySize=auto;html=1;exitX=1;exitY=0.5;exitDx=0;exitDy=0;entryX=0.5;entryY=0;entryDx=0;entryDy=0;endArrow=block;endFill=1;" edge="1" parent="WIyWlLk6GJQsqaUBKTNV-1" source="WfJiVwxlq4hMfCcBVNuR-75" target="WfJiVwxlq4hMfCcBVNuR-80">
          <mxGeometry relative="1" as="geometry" />
        </mxCell>
        <mxCell id="WfJiVwxlq4hMfCcBVNuR-82" style="edgeStyle=orthogonalEdgeStyle;rounded=0;orthogonalLoop=1;jettySize=auto;html=1;exitX=0;exitY=0.5;exitDx=0;exitDy=0;entryX=0.5;entryY=0;entryDx=0;entryDy=0;endArrow=block;endFill=1;" edge="1" parent="WIyWlLk6GJQsqaUBKTNV-1" source="WfJiVwxlq4hMfCcBVNuR-75" target="WfJiVwxlq4hMfCcBVNuR-79">
          <mxGeometry relative="1" as="geometry" />
        </mxCell>
        <mxCell id="WfJiVwxlq4hMfCcBVNuR-75" value="B-L com Migração de Finos + Molhabilidade" style="rounded=1;whiteSpace=wrap;html=1;" vertex="1" parent="WIyWlLk6GJQsqaUBKTNV-1">
          <mxGeometry x="630" y="640" width="120" height="60" as="geometry" />
        </mxCell>
        <mxCell id="WfJiVwxlq4hMfCcBVNuR-77" value="Artigo III" style="ellipse;whiteSpace=wrap;html=1;rounded=1;" vertex="1" parent="WIyWlLk6GJQsqaUBKTNV-1">
          <mxGeometry x="430" y="520" width="120" height="60" as="geometry" />
        </mxCell>
        <mxCell id="WfJiVwxlq4hMfCcBVNuR-84" style="edgeStyle=orthogonalEdgeStyle;rounded=0;orthogonalLoop=1;jettySize=auto;html=1;entryX=0;entryY=0.5;entryDx=0;entryDy=0;endArrow=block;endFill=1;" edge="1" parent="WIyWlLk6GJQsqaUBKTNV-1" source="WfJiVwxlq4hMfCcBVNuR-79" target="WfJiVwxlq4hMfCcBVNuR-83">
          <mxGeometry relative="1" as="geometry" />
        </mxCell>
        <mxCell id="WfJiVwxlq4hMfCcBVNuR-79" value="&lt;span&gt;Solução numérica Programa IV&lt;/span&gt;" style="rounded=1;whiteSpace=wrap;html=1;" vertex="1" parent="WIyWlLk6GJQsqaUBKTNV-1">
          <mxGeometry x="560" y="750" width="100" height="50" as="geometry" />
        </mxCell>
        <mxCell id="WfJiVwxlq4hMfCcBVNuR-85" style="edgeStyle=orthogonalEdgeStyle;rounded=0;orthogonalLoop=1;jettySize=auto;html=1;entryX=1;entryY=0.5;entryDx=0;entryDy=0;endArrow=block;endFill=1;" edge="1" parent="WIyWlLk6GJQsqaUBKTNV-1" source="WfJiVwxlq4hMfCcBVNuR-80" target="WfJiVwxlq4hMfCcBVNuR-83">
          <mxGeometry relative="1" as="geometry" />
        </mxCell>
        <mxCell id="WfJiVwxlq4hMfCcBVNuR-80" value="&lt;span&gt;Validação Analítica&lt;/span&gt;" style="rounded=1;whiteSpace=wrap;html=1;" vertex="1" parent="WIyWlLk6GJQsqaUBKTNV-1">
          <mxGeometry x="720" y="750" width="100" height="52.5" as="geometry" />
        </mxCell>
        <mxCell id="WfJiVwxlq4hMfCcBVNuR-87" style="edgeStyle=orthogonalEdgeStyle;rounded=0;orthogonalLoop=1;jettySize=auto;html=1;entryX=0.5;entryY=0;entryDx=0;entryDy=0;endArrow=block;endFill=1;" edge="1" parent="WIyWlLk6GJQsqaUBKTNV-1" source="WfJiVwxlq4hMfCcBVNuR-83" target="WfJiVwxlq4hMfCcBVNuR-86">
          <mxGeometry relative="1" as="geometry" />
        </mxCell>
        <mxCell id="WfJiVwxlq4hMfCcBVNuR-88" style="edgeStyle=orthogonalEdgeStyle;rounded=0;orthogonalLoop=1;jettySize=auto;html=1;endArrow=block;endFill=1;startArrow=none;" edge="1" parent="WIyWlLk6GJQsqaUBKTNV-1">
          <mxGeometry relative="1" as="geometry">
            <mxPoint x="690" y="610" as="targetPoint" />
            <mxPoint x="690" y="960" as="sourcePoint" />
            <Array as="points">
              <mxPoint x="540" y="610" />
            </Array>
          </mxGeometry>
        </mxCell>
        <mxCell id="WfJiVwxlq4hMfCcBVNuR-83" value="Consistente" style="rhombus;whiteSpace=wrap;html=1;" vertex="1" parent="WIyWlLk6GJQsqaUBKTNV-1">
          <mxGeometry x="650" y="850" width="80" height="80" as="geometry" />
        </mxCell>
        <mxCell id="WfJiVwxlq4hMfCcBVNuR-93" style="edgeStyle=orthogonalEdgeStyle;rounded=0;orthogonalLoop=1;jettySize=auto;html=1;exitX=0;exitY=0.5;exitDx=0;exitDy=0;endArrow=block;endFill=0;" edge="1" parent="WIyWlLk6GJQsqaUBKTNV-1" source="WfJiVwxlq4hMfCcBVNuR-86" target="WfJiVwxlq4hMfCcBVNuR-92">
          <mxGeometry relative="1" as="geometry" />
        </mxCell>
        <mxCell id="WfJiVwxlq4hMfCcBVNuR-86" value="Comparação com OpenFoam" style="rounded=1;whiteSpace=wrap;html=1;" vertex="1" parent="WIyWlLk6GJQsqaUBKTNV-1">
          <mxGeometry x="630" y="1010" width="120" height="60" as="geometry" />
        </mxCell>
        <mxCell id="WfJiVwxlq4hMfCcBVNuR-89" value="Não" style="text;html=1;strokeColor=none;fillColor=none;align=center;verticalAlign=middle;whiteSpace=wrap;rounded=0;" vertex="1" parent="WIyWlLk6GJQsqaUBKTNV-1">
          <mxGeometry x="610" y="940" width="40" height="20" as="geometry" />
        </mxCell>
        <mxCell id="WfJiVwxlq4hMfCcBVNuR-91" value="Sim" style="text;html=1;strokeColor=none;fillColor=none;align=center;verticalAlign=middle;whiteSpace=wrap;rounded=0;" vertex="1" parent="WIyWlLk6GJQsqaUBKTNV-1">
          <mxGeometry x="700" y="970" width="40" height="20" as="geometry" />
        </mxCell>
        <mxCell id="WfJiVwxlq4hMfCcBVNuR-92" value="Dissertação" style="ellipse;whiteSpace=wrap;html=1;" vertex="1" parent="WIyWlLk6GJQsqaUBKTNV-1">
          <mxGeometry x="460" y="1010" width="120" height="60" as="geometry" />
        </mxCell>
        <mxCell id="WfJiVwxlq4hMfCcBVNuR-95" value="ROTA 2" style="text;html=1;strokeColor=none;fillColor=none;align=center;verticalAlign=middle;whiteSpace=wrap;rounded=0;" vertex="1" parent="WIyWlLk6GJQsqaUBKTNV-1">
          <mxGeometry x="660" y="85" width="60" height="20" as="geometry" />
        </mxCell>
        <mxCell id="WfJiVwxlq4hMfCcBVNuR-96" value="" style="edgeStyle=orthogonalEdgeStyle;rounded=0;orthogonalLoop=1;jettySize=auto;html=1;endArrow=none;endFill=0;" edge="1" parent="WIyWlLk6GJQsqaUBKTNV-1" source="WIyWlLk6GJQsqaUBKTNV-3" target="WfJiVwxlq4hMfCcBVNuR-95">
          <mxGeometry relative="1" as="geometry">
            <mxPoint x="490" y="95" as="sourcePoint" />
            <mxPoint x="690" y="200" as="targetPoint" />
          </mxGeometry>
        </mxCell>
        <mxCell id="WfJiVwxlq4hMfCcBVNuR-94" value="ROTA 1" style="text;html=1;strokeColor=none;fillColor=none;align=center;verticalAlign=middle;whiteSpace=wrap;rounded=0;" vertex="1" parent="WIyWlLk6GJQsqaUBKTNV-1">
          <mxGeometry x="100" y="85" width="60" height="20" as="geometry" />
        </mxCell>
        <mxCell id="WfJiVwxlq4hMfCcBVNuR-97" value="" style="edgeStyle=orthogonalEdgeStyle;rounded=0;orthogonalLoop=1;jettySize=auto;html=1;exitX=0;exitY=0.5;exitDx=0;exitDy=0;entryX=1;entryY=0.5;entryDx=0;entryDy=0;endArrow=none;" edge="1" parent="WIyWlLk6GJQsqaUBKTNV-1" source="WIyWlLk6GJQsqaUBKTNV-3" target="WfJiVwxlq4hMfCcBVNuR-94">
          <mxGeometry relative="1" as="geometry">
            <mxPoint x="364" y="95" as="sourcePoint" />
            <mxPoint x="130" y="200" as="targetPoint" />
            <Array as="points">
              <mxPoint x="200" y="95" />
              <mxPoint x="200" y="95" />
            </Array>
          </mxGeometry>
        </mxCell>
      </root>
    </mxGraphModel>
  </diagram>
</mxfile>
